IKResults
version=1
nRows=7
nColumns=63
inDegrees=yes

Units are S.I. units (second, meters, Newtons, ...)
If the header above contains a line with 'inDegrees', this indicates whether rotational values are in degrees (yes) or radians (no).

endheader
time	pelvis_tilt	pelvis_list	pelvis_rotation	pelvis_tx	pelvis_ty	pelvis_tz	hip_flexion_r	hip_adduction_r	hip_rotation_r	knee_angle_r	knee_angle_r_beta	ankle_angle_r	subtalar_angle_r	mtp_angle_r	hip_flexion_l	hip_adduction_l	hip_rotation_l	knee_angle_l	knee_angle_l_beta	ankle_angle_l	subtalar_angle_l	mtp_angle_l	L5_S1_Flex_Ext	L5_S1_Lat_Bending	L5_S1_axial_rotation	L4_L5_Flex_Ext	L4_L5_Lat_Bending	L4_L5_axial_rotation	L3_L4_Flex_Ext	L3_L4_Lat_Bending	L3_L4_axial_rotation	L2_L3_Flex_Ext	L2_L3_Lat_Bending	L2_L3_axial_rotation	L1_L2_Flex_Ext	L1_L2_Lat_Bending	L1_L2_axial_rotation	L1_T12_Flex_Ext	L1_T12_Lat_Bending	L1_T12_axial_rotation	Abs_r3	Abs_r2	Abs_r1	Abs_t1	Abs_t2	neck_flexion	neck_bending	neck_rotation	arm_flex_r	arm_add_r	arm_rot_r	elbow_flex_r	pro_sup_r	wrist_flex_r	wrist_dev_r	arm_flex_l	arm_add_l	arm_rot_l	elbow_flex_l	pro_sup_l	wrist_flex_l	wrist_dev_l
      2.03333333	   -246.42007939	    -38.99713767	    -55.67347445	     -0.48622196	      0.11686629	     -0.77421102	     21.04868855	     -5.41038754	     39.51881301	     32.93670142	      0.57485388	      0.00000000	      0.00000000	      0.00000000	     33.63119561	      1.66821815	    -28.72670310	     16.69471097	      0.29137767	      0.00000000	      0.00000000	      0.00000000	     -1.60188041	     -2.61754608	     10.28971545	     -2.97485210	     -3.48133629	     10.93282267	     -2.63172932	     -6.36430154	     10.93282267	     -1.83078911	     -6.36430154	      9.00350102	     -1.48750614	     -5.33769997	      8.36039381	     -0.91531446	     -4.05457888	      7.71728659	    -11.44207155	    -29.61020477	     57.22831044	      0.00000000	      0.00000000	     -3.55177968	     -4.38475528	      0.43572552	     38.68918039	     -0.84781449	    -52.18507280	    122.68140208	     89.99559364	      0.00000000	      0.00000000	     50.91485027	    -28.42922193	     20.61764640	    107.00905634	     89.99559364	      0.00000000	      0.00000000
      2.06666667	   -254.71462948	    -43.96673872	    -42.50780142	     -0.46022431	      0.14454763	     -0.79629784	     17.40515765	     -2.42288402	     29.89673486	     32.01534986	      0.55877327	      0.00000000	      0.00000000	      0.00000000	     34.15153845	      0.89298986	    -27.38598377	     18.26598962	      0.31880166	      0.00000000	      0.00000000	      0.00000000	     -1.61185123	     -1.47009376	      9.96409790	     -2.99336891	     -1.95522470	     10.58685402	     -2.64811038	     -3.57438596	     10.58685402	     -1.84218477	     -3.57438596	      8.71858566	     -1.49676505	     -2.99781519	      8.09582954	     -0.92101179	     -2.27717523	      7.47307343	    -11.51329212	    -16.62999462	     55.41732329	      0.00000000	      0.00000000	     -9.01794235	     -1.82978927	    -18.09905836	     26.88557129	    -21.05274108	    -67.43942017	    122.74689341	     89.99559364	      0.00000000	      0.00000000	     57.06169786	    -20.80767210	     27.03843667	     92.36149293	     89.99559364	      0.00000000	      0.00000000
      2.10000000	   -261.26697597	    -49.37918499	    -32.31005132	     -0.42478829	      0.16714949	     -0.81832307	     16.08391066	     -1.11508470	     14.34033639	     30.53137526	      0.53287302	      0.00000000	      0.00000000	      0.00000000	     35.53657812	     -1.20116778	    -28.71318936	     21.42867984	      0.37400102	      0.00000000	      0.00000000	      0.00000000	     -1.26175151	     -0.44654124	      9.82329193	     -2.34319872	     -0.59389986	     10.43724768	     -2.07293155	     -1.08572038	     10.43724768	     -1.44205580	     -1.08572038	      8.59538044	     -1.17166245	     -0.91058691	      7.98142469	     -0.72096481	     -0.69169239	      7.36746895	     -9.01256483	     -5.05136387	     54.63420274	      0.00000000	      0.00000000	    -10.48165146	      1.42638345	    -31.86716927	      4.37862094	    -37.77952125	    -89.25276858	    116.92456524	     89.99559364	      0.00000000	      0.00000000	     61.21956936	    -14.26373887	     30.84179953	     80.18596161	     89.99559364	      0.00000000	      0.00000000
      2.13333333	   -264.59638720	    -53.06648330	    -27.02616690	     -0.39283892	      0.17936482	     -0.83481228	     15.68512741	     -0.86724590	      4.92518777	     29.78959781	      0.51992656	      0.00000000	      0.00000000	      0.00000000	     36.12878689	     -5.17851420	    -34.98768174	     25.40758361	      0.44344599	      0.00000000	      0.00000000	      0.00000000	     -0.91251739	      0.21556106	      9.60015581	     -1.69463605	      0.28669621	     10.20016555	     -1.49917482	      0.52411515	     10.20016555	     -1.04291613	      0.52411515	      8.40013633	     -0.84736365	      0.43957211	      7.80012659	     -0.52141244	      0.33390408	      7.20011686	     -6.51802047	      2.43846978	     53.39318656	      0.00000000	      0.00000000	    -10.25762520	      2.10719249	    -35.01130488	    -15.70896475	    -46.03739987	   -104.28701623	    107.18320657	     89.99559364	      0.00000000	      0.00000000	     62.89585517	    -14.29327473	     30.19095225	     73.47785015	     89.99559364	      0.00000000	      0.00000000
      2.16666667	   -267.20494555	    -55.13449514	    -23.74474975	     -0.36589919	      0.18855288	     -0.84784227	     15.67681255	     -1.63825371	     -2.11684148	     28.96217088	      0.50548524	      0.00000000	      0.00000000	      0.00000000	     36.97684308	     -8.98672090	    -38.70043598	     29.93619771	      0.52248522	      0.00000000	      0.00000000	      0.00000000	     -0.52250679	      0.61997571	      9.02097278	     -0.97034736	      0.82456769	      9.58478358	     -0.85842641	      1.50740894	      9.58478358	     -0.59717301	      1.50740894	      7.89335119	     -0.48519981	      1.26425447	      7.32954039	     -0.29856038	      0.96034237	      6.76572959	     -3.73221377	      7.01328921	     50.17194433	      0.00000000	      0.00000000	    -10.50057255	      2.06651296	    -32.78572050	    -30.24565211	    -50.81465911	   -111.95799104	     97.22609905	     89.99559364	      0.00000000	      0.00000000	     62.83005695	    -18.66020638	     27.80775583	     70.41514947	     89.99559364	      0.00000000	      0.00000000
      2.20000000	   -269.60192090	    -56.57727176	    -21.30670755	     -0.34314341	      0.19629394	     -0.85955476	     15.40493986	     -2.69765011	     -8.57515395	     27.66706461	      0.48288137	      0.00000000	      0.00000000	      0.00000000	     37.83845998	    -12.43911527	    -39.44867911	     34.24495533	      0.59768722	      0.00000000	      0.00000000	      0.00000000	     -0.13450670	      0.91725276	      8.31638190	     -0.24979239	      1.21994617	      8.83615577	     -0.22098106	      2.23020835	      8.83615577	     -0.15372771	      2.23020835	      7.27683417	     -0.12490292	      1.87046182	      6.75706030	     -0.07685713	      1.42082452	      6.23728643	     -0.96076791	     10.37614663	     46.25322123	      0.00000000	      0.00000000	    -11.04173035	      1.80828650	    -28.74136625	    -42.35045226	    -54.39245596	   -116.70279412	     87.89207635	     89.99559364	      0.00000000	      0.00000000	     61.45275962	    -24.64919437	     25.11222315	     69.05024060	     89.99559364	      0.00000000	      0.00000000
      2.23333333	   -271.59903182	    -57.69444988	    -19.56311886	     -0.32451450	      0.20197116	     -0.87035145	     14.85215907	     -3.80330842	    -15.09255098	     26.17710764	      0.45687672	      0.00000000	      0.00000000	      0.00000000	     38.15001904	    -15.88162263	    -39.63025155	     37.87129141	      0.66097873	      0.00000000	      0.00000000	      0.00000000	      0.18975960	      1.14987899	      7.74631149	      0.35240255	      1.52933905	      8.23045596	      0.31175604	      2.79581576	      8.23045596	      0.21687624	      2.79581576	      6.77802256	      0.17621076	      2.34483323	      6.29387809	      0.10842863	      1.78116255	      5.80973362	      1.35543383	     13.00766106	     43.08266064	      0.00000000	      0.00000000	    -11.49334883	      1.31142639	    -25.26699022	    -53.94541169	    -56.67584362	   -121.11002901	     79.30589883	     89.99559364	      0.00000000	      0.00000000	     59.20574138	    -30.38567093	     20.92333615	     67.91674617	     89.99559364	      0.00000000	      0.00000000
